<svg throwIfNamespace="true" xmlns="http://www.w3.org/2000/svg" width="1389" height="567" viewBox="0 0 1389 567">
<defs>
    <style>
      .cls-1 {
        fill: #313bac;
        fill-rule: evenodd;
      }
    </style>
  </defs>
  <path id="Color_Fill_1" data-name="Color Fill 1" class="cls-1" d="M201,2L364,5c16.338,2.489,44.4-5.383,54,2,18.4,10.331,24.535,60.832,37,80h4l2-1c11.47-24.09,9.726-58.9,24-81,12.215-.5,85.217-4.077,90-1,11.376,7.319,18.966,39.48,24,53l40,87c4.82,11.606,5.93,23.425,12,33,10.655-1.609,14.906-36.86,18-48l29-95c3.15-9.1,1.506-24.136,9-29,10.182-5.018,74.705-2.633,87-1,17.97,15.4,46.5,100.416,58,128,31.266,75.023,63.058,148.952,95,225l33,72c11.363,35.309,27.83,63.757,40,98,3.43,9.641,16.99,24.8,13,36-1.39,1.923-.1.6-2,2-6.79,3.829-76.657,1.419-80-2-11.084-7.652-35.4-76.541-43-94-34.891-80.128-73.934-161.4-108-242-7.074-16.736-29.938-81.881-42-89l-5,2c-6.185,49.518-23.421,88.3-33,134-2.821,13.458-14.259,30.363-10,44l30,64c15.55,41.379,31.151,78.255,48,118,4.613,10.881,27.02,52.174,24,62-3.448,5.949-71.694,5.425-81,3-27.175-51.392-48.428-105.843-72-161-21.889-51.218-48.057-102.306-70-153-8.675-20.042-38.629-105.564-51-113-3.891,1-3,.388-5,3-2.235,3.618-18.4,81.426-18,83l43,101,63,154c5.263,12.313,38.229,74.521,36,83-2.43,4.157-70.272,6.039-82,4-15.071-13.694-20.264-42.206-29-62L482,360l-6-1c-5.245,8.811-4.55,24.041-8,35-12.6,40.02-21.4,84.3-35,124-5.238,15.294-4.457,40.28-18,47H304c-46.839,1.36-101.608,5.3-142-5C57.67,533.4.008,425.564,0,292V234c5.249-33.255,10.613-67.384,23-95C46.189,87.3,84.759,39.128,139,19ZM854,2c21.688,0.014,74.555-4.5,91,3l34,77c32.17,79.315,65.01,156.376,99,233q17.505,41.5,35,83c3.19,7.334,4.49,25.716,11,30h5c10.81-16.832,12.83-44.8,19-65q12-40,24-80c4.52-21.675-22.65-63.455-30-79q-27.99-66.494-56-133c-8.51-17.087-26.21-41.714-28-62l3-5c12.46-1.66,85.25-.95,91,4q4.005,9,8,18,19.005,42,38,84c4.22,9.925,3.36,18.722,9,26l9-2c3.68-31.075,23.85-110.125,38-131,18.96-.009,77.88-2.1,83,8-22.96,57.876-31.07,124.043-50,185-4.33,13.926-24.29,64.1-21,78,5.9,24.9,22.73,51.582,33,74,20.81,45.444,33.14,91.119,55,136,7.51,15.41,35.94,65.649,34,81-3.8,1.7-78.49,3.262-84-1-15.49-12.351-50.49-109.326-62-134-3.47-7.446-3.19-16.018-9-21-13.05,5.509-9.2,25.241-13,40-5.41,21-26.63,105.6-38,117-15.03-.124-80.87,3.071-88-2q-22.995-54.995-46-110-44.49-98.49-89-197L917,155C898.18,119.809,880.3,81.482,866,43c-4.1-11.032-18.852-28.644-14-40ZM203,98l-17,1c-23.108,5.549-54.6,21.556-68,38-51.314,62.981-59.511,197.858-15,276,17.055,29.941,52.694,57.043,90,66l78-1,75-1c8.8-12.563,9.588-24.129,15-42,14.224-46.964,24.617-96.373,41-145,4.754-14.11,23.043-52.308,19-70l-20-40c-12.059-27.91-20.37-57.82-37-81Z"/>
</svg>
